<?xml version="1.0" standalone="no"?>
<!DOCTYPE svg PUBLIC "-//W3C//DTD SVG 20010904//EN"
 "http://www.w3.org/TR/2001/REC-SVG-20010904/DTD/svg10.dtd">
<svg version="1.0" xmlns="http://www.w3.org/2000/svg"
 width="688.000000pt" height="583.000000pt" viewBox="0 0 688.000000 583.000000"
 preserveAspectRatio="xMidYMid meet">

<g transform="translate(0.000000,583.000000) scale(0.100000,-0.100000)"
fill="#000000" stroke="none">
<path d="M770 5190 c-132 -16 -229 -62 -334 -160 -103 -96 -159 -211 -177
-364 -5 -47 -9 -757 -9 -1678 l0 -1598 294 0 293 0 7 -38 c3 -20 6 -51 6 -68
0 -87 70 -276 141 -381 41 -61 150 -174 215 -223 116 -87 269 -145 421 -159
226 -20 444 36 607 159 65 49 174 162 215 223 71 105 141 294 141 381 0 17 3
48 6 68 l7 38 867 0 867 0 7 -38 c3 -20 6 -51 6 -68 0 -87 70 -276 141 -381
41 -61 150 -174 215 -223 163 -123 381 -179 606 -159 153 14 306 72 422 159
65 49 174 162 215 223 71 105 141 294 141 381 0 17 3 48 6 68 l7 38 293 0 294
0 -1 733 0 732 -438 580 -438 580 -436 3 -437 2 0 590 0 590 -2052 -1 c-1129
-1 -2082 -5 -2118 -9z m1480 -825 l0 -385 -385 0 -385 0 0 385 0 385 385 0
385 0 0 -385z m1540 0 l0 -385 -385 0 -385 0 0 385 0 385 385 0 385 0 0 -385z
m-1020 -130 l0 -255 -135 0 -135 0 0 255 0 255 135 0 135 0 0 -255z m-1030
-635 l0 -130 -130 0 -130 0 0 130 0 130 130 0 130 0 0 -130z m1028 -132 l2
-258 -135 0 -135 0 0 130 0 130 -130 0 -130 0 0 123 c0 68 3 127 7 130 4 4
122 6 262 5 l256 -3 3 -257z m512 132 l0 -130 125 0 125 0 0 130 0 130 130 0
130 0 0 -130 0 -130 -125 0 -125 0 0 -125 0 -125 125 0 125 0 0 -260 0 -260
-125 0 -125 0 0 -130 0 -130 -135 0 -135 0 0 130 0 130 -250 0 -250 0 0 -130
0 -130 -135 0 -135 0 0 260 0 260 260 0 260 0 0 130 0 130 125 0 125 0 0 125
0 125 -125 0 -125 0 0 130 0 130 130 0 130 0 0 -130z m2645 -362 c149 -187
276 -349 283 -359 13 -18 -5 -19 -627 -19 l-641 0 0 360 0 360 358 0 357 -1
270 -341z m-3675 -408 l0 -390 -385 0 -385 0 0 390 0 390 385 0 385 0 0 -390z
m-410 -1022 c135 -35 248 -145 295 -287 28 -85 18 -217 -22 -303 -133 -284
-495 -345 -706 -119 -27 29 -63 82 -80 119 -27 57 -33 81 -35 159 -7 173 62
302 207 387 107 62 214 76 341 44z m3500 0 c135 -35 248 -145 295 -287 28 -85
18 -217 -22 -303 -133 -284 -495 -345 -706 -119 -27 29 -63 82 -80 119 -27 57
-33 81 -35 159 -7 173 62 302 207 387 107 62 214 76 341 44z"/>
<path d="M1740 4365 l0 -125 125 0 125 0 0 125 0 125 -125 0 -125 0 0 -125z"/>
<path d="M3280 4365 l0 -125 125 0 125 0 0 125 0 125 -125 0 -125 0 0 -125z"/>
<path d="M3280 2960 l0 -250 125 0 125 0 0 250 0 250 -125 0 -125 0 0 -250z"/>
<path d="M1740 2830 l0 -120 125 0 125 0 0 120 0 120 -125 0 -125 0 0 -120z"/>
</g>
</svg>
